<mxfile host="app.diagrams.net" modified="2024-03-16T21:26:26.383Z" agent="Mozilla/5.0 (Windows NT 10.0; Win64; x64) AppleWebKit/537.36 (KHTML, like Gecko) Chrome/122.0.0.0 Safari/537.36" etag="2ysaURtE_6N-MGTl-HtM" version="24.0.7" type="device">
  <diagram name="Page-1" id="NvAkbxbGMfdatR-s8Hgs">
    <mxGraphModel dx="2020" dy="1229" grid="1" gridSize="10" guides="1" tooltips="1" connect="1" arrows="1" fold="1" page="1" pageScale="1" pageWidth="850" pageHeight="1100" math="0" shadow="0">
      <root>
        <mxCell id="0" />
        <mxCell id="1" parent="0" />
        <mxCell id="PcOxOH7UWktPn3JKr5mv-15" style="edgeStyle=orthogonalEdgeStyle;rounded=0;orthogonalLoop=1;jettySize=auto;html=1;entryX=0.5;entryY=0;entryDx=0;entryDy=0;" parent="1" source="PcOxOH7UWktPn3JKr5mv-5" target="PcOxOH7UWktPn3JKr5mv-9" edge="1">
          <mxGeometry relative="1" as="geometry" />
        </mxCell>
        <mxCell id="PcOxOH7UWktPn3JKr5mv-5" value="Initialization" style="swimlane;fontStyle=0;childLayout=stackLayout;horizontal=1;startSize=26;fillColor=none;horizontalStack=0;resizeParent=1;resizeParentMax=0;resizeLast=0;collapsible=1;marginBottom=0;whiteSpace=wrap;html=1;" parent="1" vertex="1">
          <mxGeometry x="280" y="40" width="210" height="90" as="geometry" />
        </mxCell>
        <mxCell id="PcOxOH7UWktPn3JKr5mv-6" value="Exit // Initializes Scheduler" style="text;strokeColor=none;fillColor=none;align=left;verticalAlign=top;spacingLeft=4;spacingRight=4;overflow=hidden;rotatable=0;points=[[0,0.5],[1,0.5]];portConstraint=eastwest;whiteSpace=wrap;html=1;" parent="PcOxOH7UWktPn3JKr5mv-5" vertex="1">
          <mxGeometry y="26" width="210" height="64" as="geometry" />
        </mxCell>
        <mxCell id="PcOxOH7UWktPn3JKr5mv-16" style="edgeStyle=orthogonalEdgeStyle;rounded=0;orthogonalLoop=1;jettySize=auto;html=1;" parent="1" source="PcOxOH7UWktPn3JKr5mv-9" target="PcOxOH7UWktPn3JKr5mv-11" edge="1">
          <mxGeometry relative="1" as="geometry" />
        </mxCell>
        <mxCell id="PcOxOH7UWktPn3JKr5mv-9" value="Waiting" style="swimlane;fontStyle=0;childLayout=stackLayout;horizontal=1;startSize=26;fillColor=none;horizontalStack=0;resizeParent=1;resizeParentMax=0;resizeLast=0;collapsible=1;marginBottom=0;whiteSpace=wrap;html=1;" parent="1" vertex="1">
          <mxGeometry x="250" y="240" width="210" height="90" as="geometry" />
        </mxCell>
        <mxCell id="PcOxOH7UWktPn3JKr5mv-10" value="Entry // Initialization&amp;nbsp;&lt;br&gt;&lt;br&gt;Exit // parseRequest received" style="text;strokeColor=none;fillColor=none;align=left;verticalAlign=top;spacingLeft=4;spacingRight=4;overflow=hidden;rotatable=0;points=[[0,0.5],[1,0.5]];portConstraint=eastwest;whiteSpace=wrap;html=1;" parent="PcOxOH7UWktPn3JKr5mv-9" vertex="1">
          <mxGeometry y="26" width="210" height="64" as="geometry" />
        </mxCell>
        <mxCell id="PcOxOH7UWktPn3JKr5mv-22" style="edgeStyle=orthogonalEdgeStyle;rounded=0;orthogonalLoop=1;jettySize=auto;html=1;entryX=0.5;entryY=0;entryDx=0;entryDy=0;" parent="1" source="PcOxOH7UWktPn3JKr5mv-11" target="PcOxOH7UWktPn3JKr5mv-13" edge="1">
          <mxGeometry relative="1" as="geometry" />
        </mxCell>
        <mxCell id="PcOxOH7UWktPn3JKr5mv-11" value="Scheduling" style="swimlane;fontStyle=0;childLayout=stackLayout;horizontal=1;startSize=26;fillColor=none;horizontalStack=0;resizeParent=1;resizeParentMax=0;resizeLast=0;collapsible=1;marginBottom=0;whiteSpace=wrap;html=1;" parent="1" vertex="1">
          <mxGeometry x="270" y="440" width="210" height="90" as="geometry" />
        </mxCell>
        <mxCell id="PcOxOH7UWktPn3JKr5mv-12" value="Entry // parseRequest() received&lt;br&gt;&lt;br&gt;Exit // sendRequest() + chooseElevator()&amp;nbsp;" style="text;strokeColor=none;fillColor=none;align=left;verticalAlign=top;spacingLeft=4;spacingRight=4;overflow=hidden;rotatable=0;points=[[0,0.5],[1,0.5]];portConstraint=eastwest;whiteSpace=wrap;html=1;" parent="PcOxOH7UWktPn3JKr5mv-11" vertex="1">
          <mxGeometry y="26" width="210" height="64" as="geometry" />
        </mxCell>
        <mxCell id="PcOxOH7UWktPn3JKr5mv-13" value="Closed" style="swimlane;fontStyle=0;childLayout=stackLayout;horizontal=1;startSize=26;fillColor=none;horizontalStack=0;resizeParent=1;resizeParentMax=0;resizeLast=0;collapsible=1;marginBottom=0;whiteSpace=wrap;html=1;" parent="1" vertex="1">
          <mxGeometry x="230" y="670" width="210" height="90" as="geometry" />
        </mxCell>
        <mxCell id="PcOxOH7UWktPn3JKr5mv-14" value="Entry // Exit() call" style="text;strokeColor=none;fillColor=none;align=left;verticalAlign=top;spacingLeft=4;spacingRight=4;overflow=hidden;rotatable=0;points=[[0,0.5],[1,0.5]];portConstraint=eastwest;whiteSpace=wrap;html=1;" parent="PcOxOH7UWktPn3JKr5mv-13" vertex="1">
          <mxGeometry y="26" width="210" height="64" as="geometry" />
        </mxCell>
        <mxCell id="PcOxOH7UWktPn3JKr5mv-17" value="parseRequest()" style="text;html=1;align=center;verticalAlign=middle;whiteSpace=wrap;rounded=0;" parent="1" vertex="1">
          <mxGeometry x="400" y="370" width="60" height="30" as="geometry" />
        </mxCell>
        <mxCell id="PcOxOH7UWktPn3JKr5mv-18" style="edgeStyle=orthogonalEdgeStyle;rounded=0;orthogonalLoop=1;jettySize=auto;html=1;entryX=0;entryY=0.375;entryDx=0;entryDy=0;entryPerimeter=0;" parent="1" source="PcOxOH7UWktPn3JKr5mv-11" target="PcOxOH7UWktPn3JKr5mv-10" edge="1">
          <mxGeometry relative="1" as="geometry">
            <Array as="points">
              <mxPoint x="180" y="485" />
              <mxPoint x="180" y="290" />
            </Array>
          </mxGeometry>
        </mxCell>
        <mxCell id="PcOxOH7UWktPn3JKr5mv-19" value="sendRequest()&lt;br&gt;+&lt;br&gt;chooseElevator()" style="text;html=1;align=center;verticalAlign=middle;whiteSpace=wrap;rounded=0;" parent="1" vertex="1">
          <mxGeometry x="100" y="350" width="50" height="30" as="geometry" />
        </mxCell>
        <mxCell id="PcOxOH7UWktPn3JKr5mv-20" value="Running" style="shape=umlFrame;whiteSpace=wrap;html=1;pointerEvents=0;" parent="1" vertex="1">
          <mxGeometry x="45" y="170" width="595" height="430" as="geometry" />
        </mxCell>
        <mxCell id="PcOxOH7UWktPn3JKr5mv-23" value="exit()" style="text;html=1;align=center;verticalAlign=middle;whiteSpace=wrap;rounded=0;" parent="1" vertex="1">
          <mxGeometry x="355" y="610" width="60" height="30" as="geometry" />
        </mxCell>
        <mxCell id="PcOxOH7UWktPn3JKr5mv-24" value="waitRequest()" style="text;html=1;align=center;verticalAlign=middle;whiteSpace=wrap;rounded=0;" parent="1" vertex="1">
          <mxGeometry x="400" y="130" width="60" height="40" as="geometry" />
        </mxCell>
      </root>
    </mxGraphModel>
  </diagram>
</mxfile>
